<svg width="373.625px" height="141.9199981689453px" xmlns="http://www.w3.org/2000/svg" viewBox="63.1875 4.040000915527344 373.625 141.9199981689453" style="background: rgba(0, 0, 0, 0);" preserveAspectRatio="xMidYMid"><defs><filter id="editing-extrusion" x="-100%" y="-100%" width="300%" height="300%"><feFlood result="color1" flood-color="#444"></feFlood><feConvolveMatrix order="8,8" divisor="1" kernelMatrix="1 0 0 0 0 0 0 0 0 1 0 0 0 0 0 0 0 0 1 0 0 0 0 0 0 0 0 1 0 0 0 0 0 0 0 0 1 0 0 0 0 0 0 0 0 1 0 0 0 0 0 0 0 0 1 0 0 0 0 0 0 0 0 1" in="SourceAlpha" result="extrude"></feConvolveMatrix><feComposite in="color1" in2="extrude" result="comp-extrude" operator="in"></feComposite><feOffset dx="4" dy="4" in="comp-extrude" result="offset-extrude"></feOffset><feMerge><feMergeNode in="offset-extrude"></feMergeNode><feMergeNode in="SourceGraphic"></feMergeNode></feMerge></filter></defs><g filter="url(#editing-extrusion)"><g transform="translate(119.86004209518433, 98.0050048828125)"><path d="M24.90 1.02L24.90 1.02Q18.50 1.02 13.28-2.02L13.28-2.02L13.28-2.02Q8.06-5.06 5.02-10.34L5.02-10.34L5.02-10.34Q1.98-15.62 1.98-22.02L1.98-22.02L1.98-22.02Q1.98-28.54 4.93-33.79L4.93-33.79L4.93-33.79Q7.87-39.04 12.99-42.02L12.99-42.02L12.99-42.02Q18.11-44.99 24.51-44.99L24.51-44.99L24.51-44.99Q27.97-44.99 31.30-44.16L31.30-44.16L31.30-44.16Q34.62-43.33 36.99-41.79L36.99-41.79L35.26-31.87L35.26-31.87Q30.66-33.60 26.94-33.60L26.94-33.60L26.94-33.60Q21.82-33.60 19.07-30.62L19.07-30.62L19.07-30.62Q16.32-27.65 16.32-22.08L16.32-22.08L16.32-22.08Q16.32-16.64 19.23-13.60L19.23-13.60L19.23-13.60Q22.14-10.56 27.33-10.56L27.33-10.56L27.33-10.56Q29.31-10.56 31.04-10.94L31.04-10.94L31.04-10.94Q32.77-11.33 35.26-12.35L35.26-12.35L37.06-2.24L37.06-2.24Q31.49 1.02 24.90 1.02L24.90 1.02ZM64.19 1.02L64.19 1.02Q57.28 1.02 51.94-1.92L51.94-1.92L51.94-1.92Q46.59-4.86 43.62-10.08L43.62-10.08L43.62-10.08Q40.64-15.30 40.64-21.95L40.64-21.95L40.64-21.95Q40.64-28.67 43.62-33.92L43.62-33.92L43.62-33.92Q46.59-39.17 51.94-42.08L51.94-42.08L51.94-42.08Q57.28-44.99 64.19-44.99L64.19-44.99L64.19-44.99Q71.10-44.99 76.45-42.08L76.45-42.08L76.45-42.08Q81.79-39.17 84.77-33.95L84.77-33.95L84.77-33.95Q87.74-28.74 87.74-21.95L87.74-21.95L87.74-21.95Q87.74-15.30 84.77-10.08L84.77-10.08L84.77-10.08Q81.79-4.86 76.42-1.92L76.42-1.92L76.42-1.92Q71.04 1.02 64.19 1.02L64.19 1.02ZM64.19-10.62L64.19-10.62Q68.22-10.62 70.82-13.76L70.82-13.76L70.82-13.76Q73.41-16.90 73.41-22.02L73.41-22.02L73.41-22.02Q73.41-25.41 72.22-28.06L72.22-28.06L72.22-28.06Q71.04-30.72 68.93-32.22L68.93-32.22L68.93-32.22Q66.82-33.73 64.13-33.73L64.13-33.73L64.13-33.73Q61.50-33.73 59.39-32.22L59.39-32.22L59.39-32.22Q57.28-30.72 56.13-28.06L56.13-28.06L56.13-28.06Q54.98-25.41 54.98-22.02L54.98-22.02L54.98-22.02Q54.98-16.90 57.54-13.76L57.54-13.76L57.54-13.76Q60.10-10.62 64.19-10.62L64.19-10.62ZM93.89 0L93.89-44.03L109.76-44.03L109.76-44.03Q119.62-44.03 125.02-40.19L125.02-40.19L125.02-40.19Q130.43-36.35 130.43-29.44L130.43-29.44L130.43-29.44Q130.43-25.09 127.78-21.82L127.78-21.82L127.78-21.82Q125.12-18.56 120.54-16.80L120.54-16.80L120.54-16.80Q115.97-15.04 110.40-15.04L110.40-15.04L107.71-15.04L107.71 0L93.89 0ZM110.46-23.94L110.46-23.94Q113.86-23.94 115.71-25.34L115.71-25.34L115.71-25.34Q117.57-26.75 117.57-29.44L117.57-29.44L117.57-29.44Q117.57-32.13 115.74-33.47L115.74-33.47L115.74-33.47Q113.92-34.82 110.46-34.82L110.46-34.82L107.71-34.82L107.71-24.06L107.71-24.06Q108.99-23.94 110.46-23.94L110.46-23.94ZM135.42 0L135.42-44.03L150.21-44.03L150.21 0L135.42 0ZM158.53 0L158.53-44.03L189.44-44.03L189.44-34.30L174.08-34.30L174.08-26.30L188.10-26.30L188.10-18.24L174.08-18.24L174.08-9.73L189.44-9.73L189.44 0L158.53 0ZM196.61 0L196.61-44.03L215.74-44.03L215.74-44.03Q222.66-44.03 228.00-41.28L228.00-41.28L228.00-41.28Q233.34-38.53 236.32-33.60L236.32-33.60L236.32-33.60Q239.30-28.67 239.30-22.34L239.30-22.34L239.30-22.34Q239.30-15.68 236.38-10.62L236.38-10.62L236.38-10.62Q233.47-5.57 228.13-2.78L228.13-2.78L228.13-2.78Q222.78 0 215.74 0L215.74 0L196.61 0ZM210.75-11.52L215.10-11.52L215.10-11.52Q219.90-11.52 222.43-14.56L222.43-14.56L222.43-14.56Q224.96-17.60 224.96-22.46L224.96-22.46L224.96-22.46Q224.96-27.07 222.50-29.79L222.50-29.79L222.50-29.79Q220.03-32.51 215.10-32.51L215.10-32.51L210.75-32.51L210.75-11.52ZM246.91-16.13L244.35-34.24L244.35-44.16L257.86-44.16L257.86-34.24L255.36-16.13L246.91-16.13ZM251.14 0.38L251.14 0.38Q247.74 0.38 245.82-1.47L245.82-1.47L245.82-1.47Q243.90-3.33 243.90-6.14L243.90-6.14L243.90-6.14Q243.90-9.02 245.89-10.82L245.89-10.82L245.89-10.82Q247.87-12.61 251.14-12.61L251.14-12.61L251.14-12.61Q254.34-12.61 256.32-10.72L256.32-10.72L256.32-10.72Q258.30-8.83 258.30-6.14L258.30-6.14L258.30-6.14Q258.30-3.14 256.45-1.38L256.45-1.38L256.45-1.38Q254.59 0.38 251.14 0.38L251.14 0.38Z" fill="#ccc"></path></g></g><style>text {
  font-size: 64px;
  font-family: Arial Black;
  dominant-baseline: central;
  text-anchor: middle;
}</style></svg>