<svg width="485.55499267578125px" height="141.9199981689453px" xmlns="http://www.w3.org/2000/svg" viewBox="7.222503662109375 4.040000915527344 485.55499267578125 141.9199981689453" style="background: rgba(0, 0, 0, 0);" preserveAspectRatio="xMidYMid"><defs><filter id="editing-extrusion" x="-100%" y="-100%" width="300%" height="300%"><feFlood result="color1" flood-color="#444"></feFlood><feConvolveMatrix order="8,8" divisor="1" kernelMatrix="1 0 0 0 0 0 0 0 0 1 0 0 0 0 0 0 0 0 1 0 0 0 0 0 0 0 0 1 0 0 0 0 0 0 0 0 1 0 0 0 0 0 0 0 0 1 0 0 0 0 0 0 0 0 1 0 0 0 0 0 0 0 0 1" in="SourceAlpha" result="extrude"></feConvolveMatrix><feComposite in="color1" in2="extrude" result="comp-extrude" operator="in"></feComposite><feOffset dx="4" dy="4" in="comp-extrude" result="offset-extrude"></feOffset><feMerge><feMergeNode in="offset-extrude"></feMergeNode><feMergeNode in="SourceGraphic"></feMergeNode></feMerge></filter></defs><g filter="url(#editing-extrusion)"><g transform="translate(78.8650164604187, 98.0050048828125)"><path d="M24.90 1.02L24.90 1.02Q18.50 1.02 13.28-2.02L13.28-2.02L13.28-2.02Q8.06-5.06 5.02-10.34L5.02-10.34L5.02-10.34Q1.98-15.62 1.98-22.02L1.98-22.02L1.98-22.02Q1.98-28.54 4.93-33.79L4.93-33.79L4.93-33.79Q7.87-39.04 12.99-42.02L12.99-42.02L12.99-42.02Q18.11-44.99 24.51-44.99L24.51-44.99L24.51-44.99Q27.97-44.99 31.30-44.16L31.30-44.16L31.30-44.16Q34.62-43.33 36.99-41.79L36.99-41.79L35.26-31.87L35.26-31.87Q30.66-33.60 26.94-33.60L26.94-33.60L26.94-33.60Q21.82-33.60 19.07-30.62L19.07-30.62L19.07-30.62Q16.32-27.65 16.32-22.08L16.32-22.08L16.32-22.08Q16.32-16.64 19.23-13.60L19.23-13.60L19.23-13.60Q22.14-10.56 27.33-10.56L27.33-10.56L27.33-10.56Q29.31-10.56 31.04-10.94L31.04-10.94L31.04-10.94Q32.77-11.33 35.26-12.35L35.26-12.35L37.06-2.24L37.06-2.24Q31.49 1.02 24.90 1.02L24.90 1.02ZM64.19 1.02L64.19 1.02Q57.28 1.02 51.94-1.92L51.94-1.92L51.94-1.92Q46.59-4.86 43.62-10.08L43.62-10.08L43.62-10.08Q40.64-15.30 40.64-21.95L40.64-21.95L40.64-21.95Q40.64-28.67 43.62-33.92L43.62-33.92L43.62-33.92Q46.59-39.17 51.94-42.08L51.94-42.08L51.94-42.08Q57.28-44.99 64.19-44.99L64.19-44.99L64.19-44.99Q71.10-44.99 76.45-42.08L76.45-42.08L76.45-42.08Q81.79-39.17 84.77-33.95L84.77-33.95L84.77-33.95Q87.74-28.74 87.74-21.95L87.74-21.95L87.74-21.95Q87.74-15.30 84.77-10.08L84.77-10.08L84.77-10.08Q81.79-4.86 76.42-1.92L76.42-1.92L76.42-1.92Q71.04 1.02 64.19 1.02L64.19 1.02ZM64.19-10.62L64.19-10.62Q68.22-10.62 70.82-13.76L70.82-13.76L70.82-13.76Q73.41-16.90 73.41-22.02L73.41-22.02L73.41-22.02Q73.41-25.41 72.22-28.06L72.22-28.06L72.22-28.06Q71.04-30.72 68.93-32.22L68.93-32.22L68.93-32.22Q66.82-33.73 64.13-33.73L64.13-33.73L64.13-33.73Q61.50-33.73 59.39-32.22L59.39-32.22L59.39-32.22Q57.28-30.72 56.13-28.06L56.13-28.06L56.13-28.06Q54.98-25.41 54.98-22.02L54.98-22.02L54.98-22.02Q54.98-16.90 57.54-13.76L57.54-13.76L57.54-13.76Q60.10-10.62 64.19-10.62L64.19-10.62ZM93.89 0L93.89-44.03L109.76-44.03L109.76-44.03Q119.62-44.03 125.02-40.19L125.02-40.19L125.02-40.19Q130.43-36.35 130.43-29.44L130.43-29.44L130.43-29.44Q130.43-25.09 127.78-21.82L127.78-21.82L127.78-21.82Q125.12-18.56 120.54-16.80L120.54-16.80L120.54-16.80Q115.97-15.04 110.40-15.04L110.40-15.04L107.71-15.04L107.71 0L93.89 0ZM110.46-23.94L110.46-23.94Q113.86-23.94 115.71-25.34L115.71-25.34L115.71-25.34Q117.57-26.75 117.57-29.44L117.57-29.44L117.57-29.44Q117.57-32.13 115.74-33.47L115.74-33.47L115.74-33.47Q113.92-34.82 110.46-34.82L110.46-34.82L107.71-34.82L107.71-24.06L107.71-24.06Q108.99-23.94 110.46-23.94L110.46-23.94ZM143.74 0L143.74-12.22L131.07-44.03L144.45-44.03L150.66-24.26L156.74-44.03L170.82-44.03L157.50-12.22L157.50 0L143.74 0ZM174.59 0L174.59-44.03L189.38-44.03L189.38 0L174.59 0ZM197.70 0L197.70-44.03L210.56-44.03L228.10-20.29L228.10-44.03L239.55-44.03L239.55 0L226.75 0L209.09-22.91L209.09 0L197.70 0ZM268.35 1.02L268.35 1.02Q261.89 1.02 256.70-2.08L256.70-2.08L256.70-2.08Q251.52-5.18 248.58-10.56L248.58-10.56L248.58-10.56Q245.63-15.94 245.63-22.40L245.63-22.40L245.63-22.40Q245.63-28.61 248.61-33.79L248.61-33.79L248.61-33.79Q251.58-38.98 256.90-41.98L256.90-41.98L256.90-41.98Q262.21-44.99 268.99-44.99L268.99-44.99L268.99-44.99Q272.70-44.99 276.19-44.16L276.19-44.16L276.19-44.16Q279.68-43.33 282.50-41.79L282.50-41.79L278.27-31.87L278.27-31.87Q273.92-33.66 270.14-33.66L270.14-33.66L270.14-33.66Q265.22-33.66 262.53-30.50L262.53-30.50L262.53-30.50Q259.84-27.33 259.84-22.21L259.84-22.21L259.84-22.21Q259.84-18.88 261.06-16.22L261.06-16.22L261.06-16.22Q262.27-13.57 264.48-12.03L264.48-12.03L264.48-12.03Q266.69-10.50 269.50-10.50L269.50-10.50L269.50-10.50Q271.04-10.50 272.06-10.75L272.06-10.75L272.06-21.06L283.14-22.34L283.14-2.30L283.14-2.30Q275.90 1.02 268.35 1.02L268.35 1.02ZM295.36 0.38L295.36 0.38Q291.97 0.38 290.05-1.47L290.05-1.47L290.05-1.47Q288.13-3.33 288.13-6.14L288.13-6.14L288.13-6.14Q288.13-9.02 290.11-10.82L290.11-10.82L290.11-10.82Q292.10-12.61 295.36-12.61L295.36-12.61L295.36-12.61Q298.56-12.61 300.54-10.72L300.54-10.72L300.54-10.72Q302.53-8.83 302.53-6.14L302.53-6.14L302.53-6.14Q302.53-3.14 300.67-1.38L300.67-1.38L300.67-1.38Q298.82 0.38 295.36 0.38L295.36 0.38ZM314.24 0.38L314.24 0.38Q310.85 0.38 308.93-1.47L308.93-1.47L308.93-1.47Q307.01-3.33 307.01-6.14L307.01-6.14L307.01-6.14Q307.01-9.02 308.99-10.82L308.99-10.82L308.99-10.82Q310.98-12.61 314.24-12.61L314.24-12.61L314.24-12.61Q317.44-12.61 319.42-10.72L319.42-10.72L319.42-10.72Q321.41-8.83 321.41-6.14L321.41-6.14L321.41-6.14Q321.41-3.14 319.55-1.38L319.55-1.38L319.55-1.38Q317.70 0.38 314.24 0.38L314.24 0.38ZM333.12 0.38L333.12 0.38Q329.73 0.38 327.81-1.47L327.81-1.47L327.81-1.47Q325.89-3.33 325.89-6.14L325.89-6.14L325.89-6.14Q325.89-9.02 327.87-10.82L327.87-10.82L327.87-10.82Q329.86-12.61 333.12-12.61L333.12-12.61L333.12-12.61Q336.32-12.61 338.30-10.72L338.30-10.72L338.30-10.72Q340.29-8.83 340.29-6.14L340.29-6.14L340.29-6.14Q340.29-3.14 338.43-1.38L338.43-1.38L338.43-1.38Q336.58 0.38 333.12 0.38L333.12 0.38Z" fill="#ccc"></path></g></g><style>text {
  font-size: 64px;
  font-family: Arial Black;
  dominant-baseline: central;
  text-anchor: middle;
}</style></svg>